<svg width="20" height="22" viewBox="0 0 20 22" fill="none" xmlns="http://www.w3.org/2000/svg">
<path d="M9.5283 2.1174C8.40516 2.1174 7.32802 2.56357 6.53384 3.35774C5.73967 4.15192 5.2935 5.22906 5.2935 6.3522C5.2935 7.47534 5.73967 8.55248 6.53384 9.34666C7.32802 10.1408 8.40516 10.587 9.5283 10.587C10.6514 10.587 11.7286 10.1408 12.5228 9.34666C13.3169 8.55248 13.7631 7.47534 13.7631 6.3522C13.7631 5.22906 13.3169 4.15192 12.5228 3.35774C11.7286 2.56357 10.6514 2.1174 9.5283 2.1174ZM3.1761 6.3522C3.1761 4.66749 3.84535 3.05179 5.03662 1.86052C6.22789 0.669248 7.84359 0 9.5283 0C11.213 0 12.8287 0.669248 14.02 1.86052C15.2113 3.05179 15.8805 4.66749 15.8805 6.3522C15.8805 8.03691 15.2113 9.65262 14.02 10.8439C12.8287 12.0352 11.213 12.7044 9.5283 12.7044C7.84359 12.7044 6.22789 12.0352 5.03662 10.8439C3.84535 9.65262 3.1761 8.03691 3.1761 6.3522ZM5.2935 16.9392C4.45115 16.9392 3.64329 17.2738 3.04766 17.8695C2.45202 18.4651 2.1174 19.2729 2.1174 20.1153C2.1174 20.3961 2.00586 20.6654 1.80731 20.8639C1.60877 21.0625 1.33948 21.174 1.0587 21.174C0.777915 21.174 0.508631 21.0625 0.310086 20.8639C0.111541 20.6654 0 20.3961 0 20.1153C0 18.7114 0.557706 17.365 1.55043 16.3722C2.54315 15.3795 3.88958 14.8218 5.2935 14.8218H13.7631C15.167 14.8218 16.5134 15.3795 17.5062 16.3722C18.4989 17.365 19.0566 18.7114 19.0566 20.1153C19.0566 20.3961 18.9451 20.6654 18.7465 20.8639C18.548 21.0625 18.2787 21.174 17.9979 21.174C17.7171 21.174 17.4478 21.0625 17.2493 20.8639C17.0507 20.6654 16.9392 20.3961 16.9392 20.1153C16.9392 19.2729 16.6046 18.4651 16.0089 17.8695C15.4133 17.2738 14.6055 16.9392 13.7631 16.9392H5.2935Z" fill="#FFF181"/>
</svg>
